<svg width="453" height="191" viewBox="0 0 453 191" fill="none" xmlns="http://www.w3.org/2000/svg">
<path d="M65.5 0C67.9 2.47253e-05 69.5 2.33334 70 3.5V168.5C70 171 79.5 171 79.5 168.5V47.5C79.5 35 94 25.5 105.5 25.5C144.5 25.5 166 23 166 29C166 34 159.5 36 153 43.5C146.5 51 145 56.5 145 64.5V171.5C145 180.7 138.5 187.682 130 190C124.5 191.5 47.3 190 28.5 190C5 190 0 172.5 0 163V40.5C0 31.5 10.5 22 14 19C17.5 16 33 4.5 35.5 2.5C38 0.5 38 0 41.5 0C44.3 0 45.3333 2.33333 45.5 3.5V18.5C51.1667 12.3333 63.1 0 65.5 0Z" fill="url(#paint0_linear_2195_581)"/>
<path d="M161 68.5C163.071 68.5 176.5 79 184.5 79L231 79.5C241.8 79.5 249.5 88 249.5 95C249.667 120.167 250 172.1 250 178.5C250 184.9 244 190.5 238 190.5H210C209 190.5 208 189.5 208 187.5V108C208 103 198 103 198 108V179.5C198 187 192 190.5 189 190.5H160C158.4 190.5 157.667 189.167 157.5 188.5V72C157.5 70 158 68.5 161 68.5Z" fill="url(#paint1_linear_2195_581)"/>
<path d="M306.5 75.5C308.5 75.5 309.5 78 309.5 80V180.5C309.5 184.5 303.5 190.5 299.5 190.5H265C263.5 190.5 261.5 189 261.5 187V89C261.5 88 303.3 75.5 306.5 75.5Z" fill="url(#paint2_linear_2195_581)"/>
<path d="M409 11C433.5 11 441 38 441 46C441 52.6955 437.846 56.2373 436.818 57.2148C426.465 46.5948 412.003 40 396 40C364.52 40 339 65.5198 339 97C339 128.48 364.52 154 396 154C413.235 154 428.683 146.35 439.135 134.262C440.77 135.037 445 137.741 445 145C445 154 443.5 190.5 416.5 190.5H353.5C336.5 190.5 321 176 321 158V41C321 31 332.5 11 351 11H409Z" fill="url(#paint3_linear_2195_581)"/>
<path d="M285.5 32.5C299 32.5 304.5 42 304.5 51.5C304.5 61 297 70.5 285.5 70.5C274 70.5 266.5 60.5 266.5 51.5C266.5 42.5 272 32.5 285.5 32.5Z" fill="url(#paint4_linear_2195_581)"/>
<circle cx="396" cy="97" r="54" stroke="url(#paint5_linear_2195_581)" stroke-width="6"/>
<path d="M389.5 88.5001C385.5 92.0001 370.5 118 372.5 120C374.5 122 400 104.5 403 101.5C406 98.5 421.5 72.5001 419.5 71.0001C417.5 69.5001 393.5 85.0001 389.5 88.5001Z" fill="url(#paint6_linear_2195_581)"/>
<path d="M371.677 120.704L373.766 118.551L373.766 118.551L371.677 120.704ZM420.422 70.4636L422.511 68.3104L422.511 68.3104L420.422 70.4636ZM393.5 149V152H399.5V149H396.5H393.5ZM399.5 135.5C399.5 133.843 398.157 132.5 396.5 132.5C394.843 132.5 393.5 133.843 393.5 135.5H396.5H399.5ZM449 98.5H452V92.5H449V95.5V98.5ZM435.5 92.5C433.843 92.5 432.5 93.8431 432.5 95.5C432.5 97.1569 433.843 98.5 435.5 98.5V95.5V92.5ZM399.5 43.5V40.5H393.5V43.5H396.5H399.5ZM393.5 57C393.5 58.6569 394.843 60 396.5 60C398.157 60 399.5 58.6569 399.5 57H396.5H393.5ZM342.5 92.5H339.5V98.5H342.5V95.5V92.5ZM356 98.5C357.657 98.5 359 97.1569 359 95.5C359 93.8431 357.657 92.5 356 92.5V95.5V98.5ZM371.677 120.704L373.766 118.551C374.269 119.038 374.438 119.568 374.495 119.816C374.555 120.074 374.549 120.25 374.548 120.276C374.546 120.327 374.547 120.224 374.63 119.9C374.789 119.28 375.119 118.334 375.633 117.085C376.647 114.619 378.226 111.337 380.065 107.86C381.9 104.392 383.964 100.786 385.933 97.678C387.935 94.5177 389.731 92.0436 391.026 90.7092L388.873 88.6201L386.719 86.5311C384.968 88.3366 382.898 91.2565 380.865 94.4674C378.798 97.7304 376.656 101.474 374.761 105.054C372.871 108.627 371.198 112.095 370.084 114.803C369.533 116.142 369.08 117.389 368.819 118.409C368.692 118.904 368.573 119.483 368.552 120.057C368.541 120.345 368.55 120.743 368.652 121.18C368.752 121.608 368.989 122.276 369.588 122.857L371.677 120.704ZM388.873 88.6201L391.026 90.7092C392.32 89.3747 394.739 87.505 397.838 85.4086C400.885 83.3468 404.426 81.1745 407.838 79.2354C411.258 77.2919 414.491 75.6148 416.925 74.5267C418.157 73.9759 419.093 73.6173 419.708 73.4398C420.029 73.3468 420.132 73.3425 420.082 73.3459C420.055 73.3477 419.879 73.3596 419.62 73.3072C419.371 73.2569 418.836 73.1043 418.333 72.6167L420.422 70.4636L422.511 68.3104C421.913 67.7296 421.238 67.5127 420.807 67.4258C420.367 67.337 419.969 67.34 419.681 67.3593C419.108 67.3976 418.534 67.5336 418.042 67.6757C417.03 67.9681 415.798 68.4583 414.476 69.0491C411.803 70.2442 408.387 72.022 404.873 74.0191C401.351 76.0207 397.674 78.2748 394.475 80.4392C391.327 82.5691 388.471 84.7256 386.719 86.5311L388.873 88.6201ZM420.422 70.4636L418.333 72.6167C417.831 72.1291 417.662 71.5989 417.604 71.3512C417.544 71.0936 417.55 70.9176 417.551 70.8909C417.553 70.8406 417.552 70.9433 417.469 71.2675C417.31 71.8869 416.98 72.8337 416.467 74.082C415.452 76.5479 413.874 79.8303 412.034 83.3071C410.199 86.7758 408.135 90.381 406.166 93.4893C404.164 96.6497 402.369 99.1237 401.074 100.458L403.227 102.547L405.38 104.636C407.132 102.831 409.201 99.9109 411.235 96.6999C413.302 93.437 415.444 89.6935 417.338 86.1129C419.228 82.5403 420.902 79.0724 422.016 76.364C422.566 75.0252 423.019 73.7788 423.281 72.7586C423.408 72.2629 423.526 71.6841 423.547 71.1106C423.558 70.8224 423.549 70.4244 423.447 69.987C423.347 69.5594 423.11 68.8913 422.511 68.3104L420.422 70.4636ZM403.227 102.547L401.074 100.458C399.779 101.793 397.36 103.662 394.262 105.759C391.214 107.821 387.673 109.993 384.261 111.932C380.842 113.875 377.609 115.553 375.175 116.641C373.942 117.192 373.006 117.55 372.392 117.728C372.07 117.821 371.967 117.825 372.018 117.821C372.044 117.82 372.22 117.808 372.479 117.86C372.729 117.91 373.264 118.063 373.766 118.551L371.677 120.704L369.588 122.857C370.187 123.438 370.862 123.655 371.292 123.742C371.733 123.83 372.131 123.827 372.418 123.808C372.991 123.77 373.566 123.634 374.057 123.492C375.069 123.199 376.302 122.709 377.623 122.118C380.297 120.923 383.712 119.145 387.226 117.148C390.748 115.147 394.425 112.893 397.624 110.728C400.772 108.598 403.628 106.442 405.38 104.636L403.227 102.547ZM388.873 88.6201L386.783 90.7732L401.138 104.7L403.227 102.547L405.316 100.394L390.962 86.467L388.873 88.6201ZM396.5 149H399.5V135.5H396.5H393.5V149H396.5ZM449 95.5V92.5H435.5V95.5V98.5H449V95.5ZM396.5 43.5H393.5V57H396.5H399.5V43.5H396.5ZM342.5 95.5V98.5H356V95.5V92.5H342.5V95.5Z" fill="url(#paint7_linear_2195_581)"/>
<defs>
<linearGradient id="paint0_linear_2195_581" x1="381" y1="-5.00001" x2="29.5" y2="191" gradientUnits="userSpaceOnUse">
<stop stop-color="#FFB462"/>
<stop offset="1" stop-color="#FF6167"/>
</linearGradient>
<linearGradient id="paint1_linear_2195_581" x1="381" y1="-5.00001" x2="29.5" y2="191" gradientUnits="userSpaceOnUse">
<stop stop-color="#FFB462"/>
<stop offset="1" stop-color="#FF6167"/>
</linearGradient>
<linearGradient id="paint2_linear_2195_581" x1="381" y1="-5.00001" x2="29.5" y2="191" gradientUnits="userSpaceOnUse">
<stop stop-color="#FFB462"/>
<stop offset="1" stop-color="#FF6167"/>
</linearGradient>
<linearGradient id="paint3_linear_2195_581" x1="381" y1="-5.00001" x2="29.5" y2="191" gradientUnits="userSpaceOnUse">
<stop stop-color="#FFB462"/>
<stop offset="1" stop-color="#FF6167"/>
</linearGradient>
<linearGradient id="paint4_linear_2195_581" x1="381" y1="-5.00001" x2="29.5" y2="191" gradientUnits="userSpaceOnUse">
<stop stop-color="#FFB462"/>
<stop offset="1" stop-color="#FF6167"/>
</linearGradient>
<linearGradient id="paint5_linear_2195_581" x1="470" y1="45.5" x2="362" y2="150.5" gradientUnits="userSpaceOnUse">
<stop stop-color="#FFB462"/>
<stop offset="1" stop-color="#FF6167"/>
</linearGradient>
<linearGradient id="paint6_linear_2195_581" x1="394" y1="92" x2="341" y2="167.5" gradientUnits="userSpaceOnUse">
<stop stop-color="#FFB462"/>
<stop offset="1" stop-color="#FF6167"/>
</linearGradient>
<linearGradient id="paint7_linear_2195_581" x1="471" y1="54" x2="368" y2="149" gradientUnits="userSpaceOnUse">
<stop stop-color="#FFB462"/>
<stop offset="1" stop-color="#FF6167"/>
</linearGradient>
</defs>
</svg>
