<svg width="40" height="40" viewBox="0 0 40 40" fill="none" xmlns="http://www.w3.org/2000/svg">
<path d="M8.33333 36.6667C7.41667 36.6667 6.63222 36.3405 5.98 35.6883C5.32778 35.0361 5.00111 34.2511 5 33.3333V9.99999C5 9.08332 5.32667 8.29887 5.98 7.64665C6.63333 6.99443 7.41778 6.66776 8.33333 6.66665H10V4.99999C10 4.52776 10.16 4.13221 10.48 3.81332C10.8 3.49443 11.1956 3.33443 11.6667 3.33332C12.1378 3.33221 12.5339 3.49221 12.855 3.81332C13.1761 4.13443 13.3356 4.52999 13.3333 4.99999V6.66665H26.6667V4.99999C26.6667 4.52776 26.8267 4.13221 27.1467 3.81332C27.4667 3.49443 27.8622 3.33443 28.3333 3.33332C28.8044 3.33221 29.2006 3.49221 29.5217 3.81332C29.8428 4.13443 30.0022 4.52999 30 4.99999V6.66665H31.6667C32.5833 6.66665 33.3683 6.99332 34.0217 7.64665C34.675 8.29998 35.0011 9.08443 35 9.99999V33.3333C35 34.25 34.6739 35.035 34.0217 35.6883C33.3694 36.3417 32.5844 36.6678 31.6667 36.6667H8.33333ZM8.33333 33.3333H31.6667V16.6667H8.33333V33.3333ZM8.33333 13.3333H31.6667V9.99999H8.33333V13.3333Z" fill="#F5F2F0"/>
</svg>
