<svg width="40" height="40" viewBox="0 0 40 40" fill="none" xmlns="http://www.w3.org/2000/svg">
<path d="M5 28.3333V11.6666C5 10.7499 5.32667 9.96547 5.98 9.31325C6.63333 8.66103 7.41778 8.33436 8.33333 8.33325H31.6667C32.5833 8.33325 33.3683 8.65992 34.0217 9.31325C34.675 9.96658 35.0011 10.751 35 11.6666V28.3333C35 29.2499 34.6739 30.0349 34.0217 30.6883C33.3694 31.3416 32.5844 31.6677 31.6667 31.6666H8.33333C7.41667 31.6666 6.63222 31.3405 5.98 30.6883C5.32778 30.036 5.00111 29.251 5 28.3333ZM8.33333 14.9999H11.6667V11.6666H8.33333V14.9999ZM15 14.9999H31.6667V11.6666H15V14.9999ZM15 21.6666H31.6667V18.3333H15V21.6666ZM15 28.3333H31.6667V24.9999H15V28.3333ZM8.33333 28.3333H11.6667V24.9999H8.33333V28.3333ZM8.33333 21.6666H11.6667V18.3333H8.33333V21.6666Z" fill="#197278"/>
</svg>
