<svg width="40" height="40" viewBox="0 0 40 40" fill="none" xmlns="http://www.w3.org/2000/svg">
<path d="M13.3333 20C12.8611 20 12.4656 20.16 12.1467 20.48C11.8278 20.8 11.6678 21.1956 11.6667 21.6667V26.6667C11.6667 27.1389 11.8267 27.535 12.1467 27.855C12.4667 28.175 12.8622 28.3344 13.3333 28.3333C13.8044 28.3322 14.2006 28.1722 14.5217 27.8533C14.8428 27.5344 15.0022 27.1389 15 26.6667V21.6667C15 21.1944 14.84 20.7989 14.52 20.48C14.2 20.1611 13.8044 20.0011 13.3333 20ZM26.6667 11.6667C26.1944 11.6667 25.7989 11.8267 25.48 12.1467C25.1611 12.4667 25.0011 12.8622 25 13.3333V26.6667C25 27.1389 25.16 27.535 25.48 27.855C25.8 28.175 26.1956 28.3344 26.6667 28.3333C27.1378 28.3322 27.5339 28.1722 27.855 27.8533C28.1761 27.5344 28.3356 27.1389 28.3333 26.6667V13.3333C28.3333 12.8611 28.1733 12.4656 27.8533 12.1467C27.5333 11.8278 27.1378 11.6678 26.6667 11.6667ZM20 23.3333C19.5278 23.3333 19.1322 23.4933 18.8133 23.8133C18.4944 24.1333 18.3344 24.5289 18.3333 25V26.6667C18.3333 27.1389 18.4933 27.535 18.8133 27.855C19.1333 28.175 19.5289 28.3344 20 28.3333C20.4711 28.3322 20.8672 28.1722 21.1883 27.8533C21.5094 27.5344 21.6689 27.1389 21.6667 26.6667V25C21.6667 24.5278 21.5067 24.1322 21.1867 23.8133C20.8667 23.4944 20.4711 23.3344 20 23.3333ZM8.33333 35C7.41667 35 6.63222 34.6739 5.98 34.0217C5.32778 33.3694 5.00111 32.5844 5 31.6667V8.33333C5 7.41667 5.32667 6.63222 5.98 5.98C6.63333 5.32778 7.41778 5.00111 8.33333 5H31.6667C32.5833 5 33.3683 5.32667 34.0217 5.98C34.675 6.63333 35.0011 7.41778 35 8.33333V31.6667C35 32.5833 34.6739 33.3683 34.0217 34.0217C33.3694 34.675 32.5844 35.0011 31.6667 35H8.33333ZM8.33333 31.6667H31.6667V8.33333H8.33333V31.6667ZM20 20C20.4722 20 20.8683 19.84 21.1883 19.52C21.5083 19.2 21.6678 18.8044 21.6667 18.3333C21.6656 17.8622 21.5056 17.4667 21.1867 17.1467C20.8678 16.8267 20.4722 16.6667 20 16.6667C19.5278 16.6667 19.1322 16.8267 18.8133 17.1467C18.4944 17.4667 18.3344 17.8622 18.3333 18.3333C18.3322 18.8044 18.4922 19.2006 18.8133 19.5217C19.1344 19.8428 19.53 20.0022 20 20Z" fill="#F5F2F0"/>
</svg>
