<svg width="40" height="40" viewBox="0 0 40 40" fill="none" xmlns="http://www.w3.org/2000/svg">
<path d="M26.6668 35C25.7502 35 24.9657 34.6739 24.3135 34.0217C23.6613 33.3694 23.3346 32.5844 23.3335 31.6667V25C23.3335 24.0833 23.6602 23.2989 24.3135 22.6467C24.9668 21.9944 25.7513 21.6678 26.6668 21.6667H33.3335C34.2502 21.6667 35.0352 21.9933 35.6885 22.6467C36.3418 23.3 36.6679 24.0844 36.6668 25V31.6667C36.6668 32.5833 36.3407 33.3683 35.6885 34.0217C35.0363 34.675 34.2513 35.0011 33.3335 35H26.6668ZM26.6668 31.6667H33.3335V25H26.6668V31.6667ZM5.00017 30C4.52795 30 4.13239 29.84 3.8135 29.52C3.49461 29.2 3.33461 28.8044 3.3335 28.3333C3.33239 27.8622 3.49239 27.4667 3.8135 27.1467C4.13461 26.8267 4.53017 26.6667 5.00017 26.6667H16.6668C17.1391 26.6667 17.5352 26.8267 17.8552 27.1467C18.1752 27.4667 18.3346 27.8622 18.3335 28.3333C18.3324 28.8044 18.1724 29.2006 17.8535 29.5217C17.5346 29.8428 17.1391 30.0022 16.6668 30H5.00017ZM26.6668 18.3333C25.7502 18.3333 24.9657 18.0072 24.3135 17.355C23.6613 16.7028 23.3346 15.9178 23.3335 15V8.33333C23.3335 7.41667 23.6602 6.63222 24.3135 5.98C24.9668 5.32778 25.7513 5.00111 26.6668 5H33.3335C34.2502 5 35.0352 5.32667 35.6885 5.98C36.3418 6.63333 36.6679 7.41778 36.6668 8.33333V15C36.6668 15.9167 36.3407 16.7017 35.6885 17.355C35.0363 18.0083 34.2513 18.3344 33.3335 18.3333H26.6668ZM26.6668 15H33.3335V8.33333H26.6668V15ZM5.00017 13.3333C4.52795 13.3333 4.13239 13.1733 3.8135 12.8533C3.49461 12.5333 3.33461 12.1378 3.3335 11.6667C3.33239 11.1956 3.49239 10.8 3.8135 10.48C4.13461 10.16 4.53017 10 5.00017 10H16.6668C17.1391 10 17.5352 10.16 17.8552 10.48C18.1752 10.8 18.3346 11.1956 18.3335 11.6667C18.3324 12.1378 18.1724 12.5339 17.8535 12.855C17.5346 13.1761 17.1391 13.3356 16.6668 13.3333H5.00017Z" fill="#F5F2F0"/>
</svg>
