<svg width="40" height="40" viewBox="0 0 40 40" fill="none" xmlns="http://www.w3.org/2000/svg">
<g clip-path="url(#clip0_2054_2055)">
<path d="M29.1667 20C29.1667 19.4167 29.2222 18.8544 29.3333 18.3133C29.4444 17.7722 29.5833 17.2233 29.75 16.6667H31.6667C31.9444 16.6667 32.1944 16.6111 32.4167 16.5C32.6389 16.3889 32.8333 16.2222 33 16L34.125 14.5C34.375 14.1667 34.4861 13.7917 34.4583 13.375C34.4306 12.9583 34.2639 12.5972 33.9583 12.2917L32.7917 11.125C32.4861 10.8194 32.1111 10.6594 31.6667 10.645C31.2222 10.6306 30.8333 10.7767 30.5 11.0833C29.3056 12.1944 28.3683 13.5489 27.6883 15.1467C27.0083 16.7444 26.6678 18.3622 26.6667 20C26.6656 21.6378 27.0061 23.2561 27.6883 24.855C28.3706 26.4539 29.3078 27.8078 30.5 28.9167C30.8333 29.2222 31.2222 29.3683 31.6667 29.355C32.1111 29.3417 32.4861 29.1817 32.7917 28.875L33.9583 27.7083C34.2639 27.4028 34.4306 27.0417 34.4583 26.625C34.4861 26.2083 34.375 25.8333 34.125 25.5L33 24C32.8333 23.7778 32.6389 23.6111 32.4167 23.5C32.1944 23.3889 31.9444 23.3333 31.6667 23.3333H29.75C29.5833 22.8333 29.4444 22.2983 29.3333 21.7283C29.2222 21.1583 29.1667 20.5822 29.1667 20ZM3.33333 35C2.41667 35 1.63222 34.6739 0.98 34.0217C0.327778 33.3694 0.00111111 32.5844 0 31.6667V8.33333C0 7.41667 0.326667 6.63222 0.98 5.98C1.63333 5.32778 2.41778 5.00111 3.33333 5H36.6667C37.5833 5 38.3683 5.32667 39.0217 5.98C39.675 6.63333 40.0011 7.41778 40 8.33333V31.6667C40 32.5833 39.6739 33.3683 39.0217 34.0217C38.3694 34.675 37.5844 35.0011 36.6667 35H3.33333ZM26.5 31.6667H36.6667V8.33333H3.33333V31.6667H3.5C4.66667 29.5833 6.27778 27.9517 8.33333 26.7717C10.3889 25.5917 12.6111 25.0011 15 25C17.3889 24.9989 19.6111 25.5894 21.6667 26.7717C23.7222 27.9539 25.3333 29.5856 26.5 31.6667ZM15 23.3333C16.3889 23.3333 17.5694 22.8472 18.5417 21.875C19.5139 20.9028 20 19.7222 20 18.3333C20 16.9444 19.5139 15.7639 18.5417 14.7917C17.5694 13.8194 16.3889 13.3333 15 13.3333C13.6111 13.3333 12.4306 13.8194 11.4583 14.7917C10.4861 15.7639 10 16.9444 10 18.3333C10 19.7222 10.4861 20.9028 11.4583 21.875C12.4306 22.8472 13.6111 23.3333 15 23.3333ZM7.58333 31.6667H22.4167C21.4722 30.6111 20.3539 29.7917 19.0617 29.2083C17.7694 28.625 16.4156 28.3333 15 28.3333C13.5844 28.3333 12.2372 28.625 10.9583 29.2083C9.67944 29.7917 8.55445 30.6111 7.58333 31.6667ZM15 20C14.5278 20 14.1322 19.84 13.8133 19.52C13.4944 19.2 13.3344 18.8044 13.3333 18.3333C13.3322 17.8622 13.4922 17.4667 13.8133 17.1467C14.1344 16.8267 14.53 16.6667 15 16.6667C15.47 16.6667 15.8661 16.8267 16.1883 17.1467C16.5106 17.4667 16.67 17.8622 16.6667 18.3333C16.6633 18.8044 16.5033 19.2006 16.1867 19.5217C15.87 19.8428 15.4744 20.0022 15 20Z" fill="#F5F2F0"/>
</g>
<defs>
<clipPath id="clip0_2054_2055">
<rect width="40" height="40" fill="white"/>
</clipPath>
</defs>
</svg>
