<svg width="22" height="29" viewBox="0 0 22 29" fill="none" xmlns="http://www.w3.org/2000/svg">
<path fill-rule="evenodd" clip-rule="evenodd" d="M11 0C17.0751 0 22 4.92487 22 11C22 17.0751 17.0751 22 11 22C9.52858 22 8.1256 21.7087 6.84277 21.1846L2.85156 28.0986C2.43727 28.8158 1.52008 29.0616 0.802734 28.6475C0.0854518 28.2332 -0.160191 27.316 0.253906 26.5986L4.24805 19.6807C1.66396 17.6678 0 14.5292 0 11C0 4.92487 4.92487 0 11 0ZM11 3C6.58172 3 3 6.58172 3 11C3 15.4183 6.58172 19 11 19C15.4183 19 19 15.4183 19 11C19 6.58172 15.4183 3 11 3Z" fill="#D9D9D9"/>
</svg>
