<svg width="40" height="40" viewBox="0 0 40 40" fill="none" xmlns="http://www.w3.org/2000/svg">
<path d="M20.0002 28.3333C20.4724 28.3333 20.8685 28.1733 21.1885 27.8533C21.5085 27.5333 21.6679 27.1378 21.6668 26.6667V20C21.6668 19.5278 21.5068 19.1322 21.1868 18.8133C20.8668 18.4945 20.4713 18.3345 20.0002 18.3333C19.5291 18.3322 19.1335 18.4922 18.8135 18.8133C18.4935 19.1345 18.3335 19.53 18.3335 20V26.6667C18.3335 27.1389 18.4935 27.535 18.8135 27.855C19.1335 28.175 19.5291 28.3345 20.0002 28.3333ZM20.0002 15C20.4724 15 20.8685 14.84 21.1885 14.52C21.5085 14.2 21.6679 13.8045 21.6668 13.3333C21.6657 12.8622 21.5057 12.4667 21.1868 12.1467C20.8679 11.8267 20.4724 11.6667 20.0002 11.6667C19.5279 11.6667 19.1324 11.8267 18.8135 12.1467C18.4946 12.4667 18.3346 12.8622 18.3335 13.3333C18.3324 13.8045 18.4924 14.2006 18.8135 14.5217C19.1346 14.8428 19.5302 15.0022 20.0002 15ZM20.0002 36.6667C17.6946 36.6667 15.5279 36.2289 13.5002 35.3533C11.4724 34.4778 9.7085 33.2906 8.2085 31.7917C6.7085 30.2928 5.52128 28.5289 4.64683 26.5C3.77239 24.4711 3.33461 22.3045 3.3335 20C3.33239 17.6956 3.77016 15.5289 4.64683 13.5C5.5235 11.4711 6.71072 9.70723 8.2085 8.20834C9.70628 6.70946 11.4702 5.52223 13.5002 4.64668C15.5302 3.77112 17.6968 3.33334 20.0002 3.33334C22.3035 3.33334 24.4702 3.77112 26.5002 4.64668C28.5302 5.52223 30.2941 6.70946 31.7918 8.20834C33.2896 9.70723 34.4774 11.4711 35.3552 13.5C36.2329 15.5289 36.6702 17.6956 36.6668 20C36.6635 22.3045 36.2257 24.4711 35.3535 26.5C34.4813 28.5289 33.2941 30.2928 31.7918 31.7917C30.2896 33.2906 28.5257 34.4783 26.5002 35.355C24.4746 36.2317 22.3079 36.6689 20.0002 36.6667ZM20.0002 33.3333C23.7224 33.3333 26.8752 32.0417 29.4585 29.4583C32.0418 26.875 33.3335 23.7222 33.3335 20C33.3335 16.2778 32.0418 13.125 29.4585 10.5417C26.8752 7.95834 23.7224 6.66668 20.0002 6.66668C16.2779 6.66668 13.1252 7.95834 10.5418 10.5417C7.9585 13.125 6.66683 16.2778 6.66683 20C6.66683 23.7222 7.9585 26.875 10.5418 29.4583C13.1252 32.0417 16.2779 33.3333 20.0002 33.3333Z" fill="#F5F2F0"/>
</svg>
