<svg width="40" height="40" viewBox="0 0 40 40" fill="none" xmlns="http://www.w3.org/2000/svg">
<path d="M9.99984 31.6666H14.9998V23.3333C14.9998 22.8611 15.1598 22.4655 15.4798 22.1466C15.7998 21.8278 16.1954 21.6678 16.6665 21.6666H23.3332C23.8054 21.6666 24.2015 21.8266 24.5215 22.1466C24.8415 22.4666 25.0009 22.8622 24.9998 23.3333V31.6666H29.9998V16.6666L19.9998 9.16665L9.99984 16.6666V31.6666ZM6.6665 31.6666V16.6666C6.6665 16.1389 6.78484 15.6389 7.0215 15.1666C7.25817 14.6944 7.58428 14.3055 7.99984 14L17.9998 6.49998C18.5832 6.05554 19.2498 5.83331 19.9998 5.83331C20.7498 5.83331 21.4165 6.05554 21.9998 6.49998L31.9998 14C32.4165 14.3055 32.7432 14.6944 32.9798 15.1666C33.2165 15.6389 33.3343 16.1389 33.3332 16.6666V31.6666C33.3332 32.5833 33.0065 33.3683 32.3532 34.0216C31.6998 34.675 30.9154 35.0011 29.9998 35H23.3332C22.8609 35 22.4654 34.84 22.1465 34.52C21.8276 34.2 21.6676 33.8044 21.6665 33.3333V25H18.3332V33.3333C18.3332 33.8055 18.1732 34.2016 17.8532 34.5216C17.5332 34.8416 17.1376 35.0011 16.6665 35H9.99984C9.08317 35 8.29873 34.6739 7.6465 34.0216C6.99428 33.3694 6.66762 32.5844 6.6665 31.6666Z" fill="#C44536"/>
</svg>
