<svg width="40" height="40" viewBox="0 0 40 40" fill="none" xmlns="http://www.w3.org/2000/svg">
<path d="M6.66675 31.6667V28.6667C6.66675 27.7223 6.91008 26.8545 7.39675 26.0634C7.88342 25.2723 8.52897 24.6679 9.33341 24.2501C11.0556 23.389 12.8056 22.7434 14.5834 22.3134C16.3612 21.8834 18.1667 21.6679 20.0001 21.6667C21.0279 21.6667 22.0417 21.7295 23.0417 21.8551C24.0417 21.9806 25.0417 22.1817 26.0417 22.4584L23.2501 25.2917C22.6945 25.2084 22.1529 25.139 21.6251 25.0834C21.0973 25.0279 20.5556 25.0001 20.0001 25.0001C18.4445 25.0001 16.9029 25.1879 15.3751 25.5634C13.8473 25.939 12.3334 26.5012 10.8334 27.2501C10.5834 27.389 10.3817 27.5834 10.2284 27.8334C10.0751 28.0834 9.99897 28.3612 10.0001 28.6667V30.0001H20.0001V33.3334H8.33341C7.86119 33.3334 7.46564 33.1734 7.14675 32.8534C6.82786 32.5334 6.66786 32.1379 6.66675 31.6667ZM23.3334 33.3334V31.2501C23.3334 30.8056 23.424 30.3817 23.6051 29.9784C23.7862 29.5751 24.029 29.2212 24.3334 28.9167L32.5417 20.7084C32.7917 20.4584 33.0695 20.2779 33.3751 20.1667C33.6806 20.0556 33.9862 20.0001 34.2917 20.0001C34.6251 20.0001 34.9445 20.0629 35.2501 20.1884C35.5556 20.314 35.8334 20.5012 36.0834 20.7501L37.6251 22.2917C37.8473 22.5417 38.0212 22.8195 38.1467 23.1251C38.2723 23.4306 38.3345 23.7362 38.3334 24.0417C38.3323 24.3473 38.2767 24.6601 38.1667 24.9801C38.0567 25.3001 37.8762 25.5845 37.6251 25.8334L29.4167 34.0417C29.1112 34.3473 28.7573 34.5834 28.3551 34.7501C27.9529 34.9167 27.529 35.0001 27.0834 35.0001H25.0001C24.5279 35.0001 24.1323 34.8401 23.8134 34.5201C23.4945 34.2001 23.3345 33.8045 23.3334 33.3334ZM25.8334 32.5001H27.4167L32.4584 27.4167L31.7084 26.6251L30.9167 25.8751L25.8334 30.9167V32.5001ZM31.7084 26.6251L30.9167 25.8751L32.4584 27.4167L31.7084 26.6251ZM20.0001 20.0001C18.1667 20.0001 16.5973 19.3473 15.2917 18.0417C13.9862 16.7362 13.3334 15.1667 13.3334 13.3334C13.3334 11.5001 13.9862 9.93064 15.2917 8.62508C16.5973 7.31953 18.1667 6.66675 20.0001 6.66675C21.8334 6.66675 23.4029 7.31953 24.7084 8.62508C26.014 9.93064 26.6667 11.5001 26.6667 13.3334C26.6667 15.1667 26.014 16.7362 24.7084 18.0417C23.4029 19.3473 21.8334 20.0001 20.0001 20.0001ZM20.0001 16.6667C20.9167 16.6667 21.7017 16.3406 22.3551 15.6884C23.0084 15.0362 23.3345 14.2512 23.3334 13.3334C23.3323 12.4156 23.0062 11.6312 22.3551 10.9801C21.704 10.329 20.919 10.0023 20.0001 10.0001C19.0812 9.99786 18.2967 10.3245 17.6467 10.9801C16.9967 11.6356 16.6701 12.4201 16.6667 13.3334C16.6634 14.2467 16.9901 15.0317 17.6467 15.6884C18.3034 16.3451 19.0879 16.6712 20.0001 16.6667Z" fill="#197278"/>
</svg>
