<svg width="40" height="40" viewBox="0 0 40 40" fill="none" xmlns="http://www.w3.org/2000/svg">
<path d="M19.9998 20C18.1665 20 16.5971 19.3472 15.2915 18.0417C13.9859 16.7361 13.3332 15.1667 13.3332 13.3333C13.3332 11.5 13.9859 9.93056 15.2915 8.62501C16.5971 7.31945 18.1665 6.66667 19.9998 6.66667C21.8332 6.66667 23.4026 7.31945 24.7082 8.62501C26.0137 9.93056 26.6665 11.5 26.6665 13.3333C26.6665 15.1667 26.0137 16.7361 24.7082 18.0417C23.4026 19.3472 21.8332 20 19.9998 20ZM6.6665 30V28.6667C6.6665 27.7222 6.90984 26.8544 7.3965 26.0633C7.88317 25.2722 8.52873 24.6678 9.33317 24.25C11.0554 23.3889 12.8054 22.7433 14.5832 22.3133C16.3609 21.8833 18.1665 21.6678 19.9998 21.6667C21.8332 21.6656 23.6387 21.8811 25.4165 22.3133C27.1943 22.7456 28.9443 23.3911 30.6665 24.25C31.4721 24.6667 32.1182 25.2711 32.6048 26.0633C33.0915 26.8556 33.3343 27.7233 33.3332 28.6667V30C33.3332 30.9167 33.0071 31.7017 32.3548 32.355C31.7026 33.0083 30.9176 33.3344 29.9998 33.3333H9.99984C9.08317 33.3333 8.29873 33.0072 7.6465 32.355C6.99428 31.7028 6.66762 30.9178 6.6665 30ZM9.99984 30H29.9998V28.6667C29.9998 28.3611 29.9237 28.0833 29.7715 27.8333C29.6193 27.5833 29.4176 27.3889 29.1665 27.25C27.6665 26.5 26.1526 25.9378 24.6248 25.5633C23.0971 25.1889 21.5554 25.0011 19.9998 25C18.4443 24.9989 16.9026 25.1867 15.3748 25.5633C13.8471 25.94 12.3332 26.5022 10.8332 27.25C10.5832 27.3889 10.3815 27.5833 10.2282 27.8333C10.0748 28.0833 9.99873 28.3611 9.99984 28.6667V30ZM19.9998 16.6667C20.9165 16.6667 21.7015 16.3406 22.3548 15.6883C23.0082 15.0361 23.3343 14.2511 23.3332 13.3333C23.3321 12.4156 23.0059 11.6311 22.3548 10.98C21.7037 10.3289 20.9187 10.0022 19.9998 10C19.0809 9.99778 18.2965 10.3244 17.6465 10.98C16.9965 11.6356 16.6698 12.42 16.6665 13.3333C16.6632 14.2467 16.9898 15.0317 17.6465 15.6883C18.3032 16.345 19.0876 16.6711 19.9998 16.6667Z" fill="white"/>
</svg>
