<svg width="64" height="64" viewBox="0 0 64 64" fill="none" xmlns="http://www.w3.org/2000/svg">
<path d="M31.9998 35.7333L24.2665 43.4666C23.7776 43.9555 23.1554 44.2 22.3998 44.2C21.6442 44.2 21.022 43.9555 20.5331 43.4666C20.0442 42.9777 19.7998 42.3555 19.7998 41.6C19.7998 40.8444 20.0442 40.2222 20.5331 39.7333L28.2665 32L20.5331 24.3333C20.0442 23.8444 19.7998 23.2222 19.7998 22.4666C19.7998 21.7111 20.0442 21.0889 20.5331 20.6C21.022 20.1111 21.6442 19.8666 22.3998 19.8666C23.1554 19.8666 23.7776 20.1111 24.2665 20.6L31.9998 28.3333L39.6665 20.6C40.1554 20.1111 40.7776 19.8666 41.5331 19.8666C42.2887 19.8666 42.9109 20.1111 43.3998 20.6C43.9331 21.1333 44.1998 21.7671 44.1998 22.5013C44.1998 23.2355 43.9331 23.8462 43.3998 24.3333L35.6665 32L43.3998 39.7333C43.8887 40.2222 44.1331 40.8444 44.1331 41.6C44.1331 42.3555 43.8887 42.9777 43.3998 43.4666C42.8665 44 42.2336 44.2666 41.5011 44.2666C40.7687 44.2666 40.1571 44 39.6665 43.4666L31.9998 35.7333Z" fill="#C44536"/>
</svg>
